<mxfile host="Electron" agent="Mozilla/5.0 (Windows NT 10.0; Win64; x64) AppleWebKit/537.36 (KHTML, like Gecko) draw.io/26.2.2 Chrome/134.0.6998.178 Electron/35.1.2 Safari/537.36" version="26.2.2">
  <diagram name="Page-1" id="XS0Ot8tblbo-4ztIukb4">
    <mxGraphModel dx="788" dy="524" grid="1" gridSize="10" guides="1" tooltips="1" connect="1" arrows="1" fold="1" page="1" pageScale="1" pageWidth="850" pageHeight="1100" math="0" shadow="0">
      <root>
        <mxCell id="0" />
        <mxCell id="1" parent="0" />
        <mxCell id="N56dQnDwdiwBgNOavT68-5" style="edgeStyle=orthogonalEdgeStyle;rounded=0;orthogonalLoop=1;jettySize=auto;html=1;exitX=1;exitY=0.25;exitDx=0;exitDy=0;entryX=0;entryY=0.25;entryDx=0;entryDy=0;" edge="1" parent="1" source="N56dQnDwdiwBgNOavT68-1" target="N56dQnDwdiwBgNOavT68-2">
          <mxGeometry relative="1" as="geometry" />
        </mxCell>
        <mxCell id="N56dQnDwdiwBgNOavT68-17" style="edgeStyle=orthogonalEdgeStyle;rounded=0;orthogonalLoop=1;jettySize=auto;html=1;exitX=0.25;exitY=1;exitDx=0;exitDy=0;entryX=0.25;entryY=0;entryDx=0;entryDy=0;" edge="1" parent="1" source="N56dQnDwdiwBgNOavT68-1" target="N56dQnDwdiwBgNOavT68-3">
          <mxGeometry relative="1" as="geometry" />
        </mxCell>
        <mxCell id="N56dQnDwdiwBgNOavT68-1" value="A Recruiter&amp;nbsp;" style="html=1;whiteSpace=wrap;" vertex="1" parent="1">
          <mxGeometry x="150" y="140" width="130" height="70" as="geometry" />
        </mxCell>
        <mxCell id="N56dQnDwdiwBgNOavT68-21" style="edgeStyle=orthogonalEdgeStyle;rounded=0;orthogonalLoop=1;jettySize=auto;html=1;exitX=0.25;exitY=1;exitDx=0;exitDy=0;entryX=0.25;entryY=0;entryDx=0;entryDy=0;" edge="1" parent="1" source="N56dQnDwdiwBgNOavT68-2" target="N56dQnDwdiwBgNOavT68-4">
          <mxGeometry relative="1" as="geometry" />
        </mxCell>
        <mxCell id="N56dQnDwdiwBgNOavT68-2" value="A Hiring System" style="html=1;whiteSpace=wrap;" vertex="1" parent="1">
          <mxGeometry x="450" y="150" width="120" height="70" as="geometry" />
        </mxCell>
        <mxCell id="N56dQnDwdiwBgNOavT68-16" style="edgeStyle=orthogonalEdgeStyle;rounded=0;orthogonalLoop=1;jettySize=auto;html=1;exitX=0.75;exitY=0;exitDx=0;exitDy=0;entryX=0.75;entryY=1;entryDx=0;entryDy=0;" edge="1" parent="1" source="N56dQnDwdiwBgNOavT68-3" target="N56dQnDwdiwBgNOavT68-1">
          <mxGeometry relative="1" as="geometry" />
        </mxCell>
        <mxCell id="N56dQnDwdiwBgNOavT68-3" value="A Calendar System" style="html=1;whiteSpace=wrap;" vertex="1" parent="1">
          <mxGeometry x="150" y="300" width="130" height="70" as="geometry" />
        </mxCell>
        <mxCell id="N56dQnDwdiwBgNOavT68-12" style="edgeStyle=orthogonalEdgeStyle;rounded=0;orthogonalLoop=1;jettySize=auto;html=1;exitX=0;exitY=0.5;exitDx=0;exitDy=0;entryX=1;entryY=0.5;entryDx=0;entryDy=0;" edge="1" parent="1" source="N56dQnDwdiwBgNOavT68-4" target="N56dQnDwdiwBgNOavT68-3">
          <mxGeometry relative="1" as="geometry" />
        </mxCell>
        <mxCell id="N56dQnDwdiwBgNOavT68-4" value="A Candidate" style="html=1;whiteSpace=wrap;" vertex="1" parent="1">
          <mxGeometry x="450" y="300" width="130" height="70" as="geometry" />
        </mxCell>
        <mxCell id="N56dQnDwdiwBgNOavT68-6" value="1:reviewApplications()" style="text;html=1;align=center;verticalAlign=middle;resizable=0;points=[];autosize=1;strokeColor=none;fillColor=none;" vertex="1" parent="1">
          <mxGeometry x="270" y="130" width="140" height="30" as="geometry" />
        </mxCell>
        <mxCell id="N56dQnDwdiwBgNOavT68-7" value="" style="curved=1;endArrow=classic;html=1;rounded=0;entryX=0.25;entryY=0;entryDx=0;entryDy=0;exitX=0;exitY=0.5;exitDx=0;exitDy=0;" edge="1" parent="1" source="N56dQnDwdiwBgNOavT68-1" target="N56dQnDwdiwBgNOavT68-1">
          <mxGeometry width="50" height="50" relative="1" as="geometry">
            <mxPoint x="150" y="160" as="sourcePoint" />
            <mxPoint x="182.5" y="130" as="targetPoint" />
            <Array as="points">
              <mxPoint x="120" y="170" />
              <mxPoint x="70" y="120" />
            </Array>
          </mxGeometry>
        </mxCell>
        <mxCell id="N56dQnDwdiwBgNOavT68-8" value="2:shortlistCandidates()" style="text;html=1;align=center;verticalAlign=middle;resizable=0;points=[];autosize=1;strokeColor=none;fillColor=none;" vertex="1" parent="1">
          <mxGeometry x="20" y="100" width="140" height="30" as="geometry" />
        </mxCell>
        <mxCell id="N56dQnDwdiwBgNOavT68-11" value="&lt;font style=&quot;font-size: 10px;&quot;&gt;3:notifySelection()&lt;/font&gt;" style="text;html=1;align=center;verticalAlign=middle;resizable=0;points=[];autosize=1;strokeColor=none;fillColor=none;" vertex="1" parent="1">
          <mxGeometry x="470" y="238" width="100" height="30" as="geometry" />
        </mxCell>
        <mxCell id="N56dQnDwdiwBgNOavT68-13" value="4:checkAvailability()" style="text;html=1;align=center;verticalAlign=middle;resizable=0;points=[];autosize=1;strokeColor=none;fillColor=none;" vertex="1" parent="1">
          <mxGeometry x="270" y="308" width="130" height="30" as="geometry" />
        </mxCell>
        <mxCell id="N56dQnDwdiwBgNOavT68-15" value="5:proposeTimeSlots()" style="text;html=1;align=center;verticalAlign=middle;resizable=0;points=[];autosize=1;strokeColor=none;fillColor=none;" vertex="1" parent="1">
          <mxGeometry x="250" y="220" width="140" height="30" as="geometry" />
        </mxCell>
        <mxCell id="N56dQnDwdiwBgNOavT68-18" value="6:selectTimeSlot()" style="text;html=1;align=center;verticalAlign=middle;resizable=0;points=[];autosize=1;strokeColor=none;fillColor=none;" vertex="1" parent="1">
          <mxGeometry x="70" y="250" width="120" height="30" as="geometry" />
        </mxCell>
        <mxCell id="N56dQnDwdiwBgNOavT68-19" style="edgeStyle=orthogonalEdgeStyle;rounded=0;orthogonalLoop=1;jettySize=auto;html=1;exitX=1;exitY=0;exitDx=0;exitDy=0;entryX=0.172;entryY=1.019;entryDx=0;entryDy=0;entryPerimeter=0;" edge="1" parent="1" source="N56dQnDwdiwBgNOavT68-3" target="N56dQnDwdiwBgNOavT68-2">
          <mxGeometry relative="1" as="geometry" />
        </mxCell>
        <mxCell id="N56dQnDwdiwBgNOavT68-20" value="7:scheduleInterview()" style="text;html=1;align=center;verticalAlign=middle;resizable=0;points=[];autosize=1;strokeColor=none;fillColor=none;" vertex="1" parent="1">
          <mxGeometry x="285" y="258" width="140" height="30" as="geometry" />
        </mxCell>
        <mxCell id="N56dQnDwdiwBgNOavT68-22" style="edgeStyle=orthogonalEdgeStyle;rounded=0;orthogonalLoop=1;jettySize=auto;html=1;exitX=1;exitY=1;exitDx=0;exitDy=0;entryX=0.954;entryY=-0.019;entryDx=0;entryDy=0;entryPerimeter=0;" edge="1" parent="1" source="N56dQnDwdiwBgNOavT68-2" target="N56dQnDwdiwBgNOavT68-4">
          <mxGeometry relative="1" as="geometry" />
        </mxCell>
        <mxCell id="N56dQnDwdiwBgNOavT68-23" value="8:sendInvitation()" style="text;html=1;align=center;verticalAlign=middle;resizable=0;points=[];autosize=1;strokeColor=none;fillColor=none;" vertex="1" parent="1">
          <mxGeometry x="560" y="220" width="120" height="30" as="geometry" />
        </mxCell>
        <mxCell id="N56dQnDwdiwBgNOavT68-24" value="" style="curved=1;endArrow=classic;html=1;rounded=0;exitX=1.005;exitY=0.629;exitDx=0;exitDy=0;exitPerimeter=0;" edge="1" parent="1" source="N56dQnDwdiwBgNOavT68-4">
          <mxGeometry width="50" height="50" relative="1" as="geometry">
            <mxPoint x="495" y="420" as="sourcePoint" />
            <mxPoint x="545" y="370" as="targetPoint" />
            <Array as="points">
              <mxPoint x="630" y="360" />
              <mxPoint x="600" y="400" />
              <mxPoint x="495" y="370" />
            </Array>
          </mxGeometry>
        </mxCell>
        <mxCell id="N56dQnDwdiwBgNOavT68-25" value="9:confirmAttendance()" style="text;html=1;align=center;verticalAlign=middle;resizable=0;points=[];autosize=1;strokeColor=none;fillColor=none;" vertex="1" parent="1">
          <mxGeometry x="610" y="360" width="140" height="30" as="geometry" />
        </mxCell>
      </root>
    </mxGraphModel>
  </diagram>
</mxfile>
